<svg width="29" height="24" viewBox="0 0 29 24" fill="none" xmlns="http://www.w3.org/2000/svg">
<g clip-path="url(#clip0_13_814)">
<path fill-rule="evenodd" clip-rule="evenodd" d="M27.7411 23.3617C27.7411 23.3617 29.6039 23.3617 29.6039 21.4821C29.6039 19.6025 27.7411 13.9635 20.2896 13.9635C12.8382 13.9635 10.9753 19.6025 10.9753 21.4821C10.9753 23.3617 12.8382 23.3617 12.8382 23.3617H27.7411ZM12.8792 21.4821H27.7001C27.7088 21.4811 27.7175 21.4798 27.7262 21.4783L27.7411 21.4746C27.7373 20.9784 27.43 19.5385 26.3253 18.2416C25.297 17.0255 23.49 15.8432 20.2896 15.8432C17.0911 15.8432 15.2841 17.0273 14.254 18.2416C13.1493 19.5385 12.8401 20.9802 12.8382 21.4746C12.8518 21.4772 12.8655 21.4797 12.8792 21.4821ZM20.2896 10.2042C21.2778 10.2042 22.2254 9.80818 22.9241 9.10318C23.6228 8.39818 24.0154 7.44199 24.0154 6.44497C24.0154 5.44794 23.6228 4.49176 22.9241 3.78675C22.2254 3.08175 21.2778 2.68569 20.2896 2.68569C19.3015 2.68569 18.3539 3.08175 17.6552 3.78675C16.9565 4.49176 16.5639 5.44794 16.5639 6.44497C16.5639 7.44199 16.9565 8.39818 17.6552 9.10318C18.3539 9.80818 19.3015 10.2042 20.2896 10.2042ZM25.8782 6.44497C25.8782 7.18548 25.7337 7.91874 25.4528 8.60289C25.172 9.28704 24.7603 9.90867 24.2414 10.4323C23.7224 10.9559 23.1063 11.3713 22.4283 11.6547C21.7503 11.938 21.0235 12.0839 20.2896 12.0839C19.5557 12.0839 18.829 11.938 18.151 11.6547C17.4729 11.3713 16.8569 10.9559 16.3379 10.4323C15.819 9.90867 15.4073 9.28704 15.1265 8.60289C14.8456 7.91874 14.7011 7.18548 14.7011 6.44497C14.7011 4.94943 15.2899 3.51515 16.3379 2.45765C17.386 1.40014 18.8075 0.806045 20.2896 0.806045C21.7718 0.806045 23.1933 1.40014 24.2414 2.45765C25.2894 3.51515 25.8782 4.94943 25.8782 6.44497ZM12.719 14.4898C11.9738 14.2531 11.2057 14.0974 10.4277 14.0256C9.99051 13.9836 9.55161 13.9629 9.11249 13.9635C1.66105 13.9635 -0.201806 19.6025 -0.201806 21.4821C-0.201806 22.7358 0.418526 23.3617 1.66105 23.3617H9.51486C9.23871 22.7749 9.10098 22.1316 9.11249 21.4821C9.11249 19.5837 9.81478 17.6439 11.143 16.0236C11.5957 15.471 12.1229 14.9541 12.719 14.4898ZM8.96346 15.8432C5.85621 15.8808 4.09208 17.0461 3.07683 18.2416C1.9647 19.5461 1.66105 20.9915 1.66105 21.4821H7.24963C7.24963 19.5179 7.85133 17.5612 8.96346 15.8432ZM2.59248 7.38479C2.59248 5.88925 3.18128 4.45497 4.22934 3.39747C5.2774 2.33996 6.69888 1.74586 8.18106 1.74586C9.66324 1.74586 11.0847 2.33996 12.1328 3.39747C13.1808 4.45497 13.7696 5.88925 13.7696 7.38479C13.7696 8.88032 13.1808 10.3146 12.1328 11.3721C11.0847 12.4296 9.66324 13.0237 8.18106 13.0237C6.69888 13.0237 5.2774 12.4296 4.22934 11.3721C3.18128 10.3146 2.59248 8.88032 2.59248 7.38479ZM8.18106 3.62551C7.19294 3.62551 6.24529 4.02157 5.54658 4.72657C4.84787 5.43158 4.45534 6.38776 4.45534 7.38479C4.45534 8.38181 4.84787 9.338 5.54658 10.043C6.24529 10.748 7.19294 11.1441 8.18106 11.1441C9.16918 11.1441 10.1168 10.748 10.8155 10.043C11.5142 9.338 11.9068 8.38181 11.9068 7.38479C11.9068 6.38776 11.5142 5.43158 10.8155 4.72657C10.1168 4.02157 9.16918 3.62551 8.18106 3.62551Z" fill="white"/>
</g>
<defs>
<clipPath id="clip0_13_814">
<rect width="28.5583" height="23.5186" fill="white" transform="scale(1.01547)"/>
</clipPath>
</defs>
</svg>
